<svg width="400" height="400" viewBox="0 0 80 105" fill="none" xmlns="http://www.w3.org/2000/svg">
<circle cx="40" cy="61" r="40" fill="#261F52"/>
<path d="M50.8379 70.3877C50.8379 68.1904 50.0029 66.4912 48.333 65.29C46.6924 64.0596 43.8066 63.0049 39.6758 62.126C35.5742 61.2471 32.3076 60.1924 29.876 58.9619C27.4736 57.7314 25.6865 56.2666 24.5146 54.5674C23.3721 52.8682 22.8008 50.8467 22.8008 48.5029C22.8008 44.6064 24.4414 41.3105 27.7227 38.6152C31.0332 35.9199 35.252 34.5723 40.3789 34.5723C45.7695 34.5723 50.1348 35.9639 53.4746 38.7471C56.8438 41.5303 58.5283 45.0898 58.5283 49.4258H50.3545C50.3545 47.1992 49.4023 45.2803 47.498 43.6689C45.623 42.0576 43.25 41.252 40.3789 41.252C37.4199 41.252 35.1055 41.8965 33.4355 43.1855C31.7656 44.4746 30.9307 46.1592 30.9307 48.2393C30.9307 50.2021 31.707 51.6816 33.2598 52.6777C34.8125 53.6738 37.6104 54.626 41.6533 55.5342C45.7256 56.4424 49.0215 57.5264 51.541 58.7861C54.0605 60.0459 55.9209 61.5693 57.1221 63.3564C58.3525 65.1143 58.9678 67.2676 58.9678 69.8164C58.9678 74.0645 57.2686 77.4775 53.8701 80.0557C50.4717 82.6045 46.0625 83.8789 40.6426 83.8789C36.834 83.8789 33.4648 83.2051 30.5352 81.8574C27.6055 80.5098 25.3057 78.6348 23.6357 76.2324C21.9951 73.8008 21.1748 71.1787 21.1748 68.3662H29.3047C29.4512 71.0908 30.5352 73.2588 32.5566 74.8701C34.6074 76.4521 37.3027 77.2432 40.6426 77.2432C43.7188 77.2432 46.1797 76.6279 48.0254 75.3975C49.9004 74.1377 50.8379 72.4678 50.8379 70.3877Z" fill="white"/>
<mask id="mask0" mask-type="alpha" maskUnits="userSpaceOnUse" x="21" y="34" width="38" height="50">
<path d="M50.8379 70.3877C50.8379 68.1904 50.0029 66.4912 48.333 65.29C46.6924 64.0596 43.8066 63.0049 39.6758 62.126C35.5742 61.2471 32.3076 60.1924 29.876 58.9619C27.4736 57.7314 25.6865 56.2666 24.5146 54.5674C23.3721 52.8682 22.8008 50.8467 22.8008 48.5029C22.8008 44.6064 24.4414 41.3105 27.7227 38.6152C31.0332 35.9199 35.252 34.5723 40.3789 34.5723C45.7695 34.5723 50.1348 35.9639 53.4746 38.7471C56.8438 41.5303 58.5283 45.0898 58.5283 49.4258H50.3545C50.3545 47.1992 49.4023 45.2803 47.498 43.6689C45.623 42.0576 43.25 41.252 40.3789 41.252C37.4199 41.252 35.1055 41.8965 33.4355 43.1855C31.7656 44.4746 30.9307 46.1592 30.9307 48.2393C30.9307 50.2021 31.707 51.6816 33.2598 52.6777C34.8125 53.6738 37.6104 54.626 41.6533 55.5342C45.7256 56.4424 49.0215 57.5264 51.541 58.7861C54.0605 60.0459 55.9209 61.5693 57.1221 63.3564C58.3525 65.1143 58.9678 67.2676 58.9678 69.8164C58.9678 74.0645 57.2686 77.4775 53.8701 80.0557C50.4717 82.6045 46.0625 83.8789 40.6426 83.8789C36.834 83.8789 33.4648 83.2051 30.5352 81.8574C27.6055 80.5098 25.3057 78.6348 23.6357 76.2324C21.9951 73.8008 21.1748 71.1787 21.1748 68.3662H29.3047C29.4512 71.0908 30.5352 73.2588 32.5566 74.8701C34.6074 76.4521 37.3027 77.2432 40.6426 77.2432C43.7188 77.2432 46.1797 76.6279 48.0254 75.3975C49.9004 74.1377 50.8379 72.4678 50.8379 70.3877Z" fill="white"/>
</mask>
<g mask="url(#mask0)">
<path d="M32.9091 50.5244L27 39L28.1818 51.622L28.7727 60.4024L32.9091 68.0854L28.7727 76.3171L32.9091 81.2561L35.8636 79.061V74.122L38.8182 68.0854L40.5909 76.3171H48.2727L53 84V76.3171L46.5 66.9878L44.1364 58.7561L32.9091 50.5244Z" fill="#5E5E5E"/>
</g>
</svg>
