<svg width="120" height="163" viewBox="0 0 120 163" fill="none" xmlns="http://www.w3.org/2000/svg">
<circle cx="60" cy="103" r="60" fill="#1EA3B1"/>
<path d="M75.3965 118.979C75.3965 115.317 74.0049 112.485 71.2217 110.483C68.4873 108.433 63.6777 106.675 56.793 105.21C49.957 103.745 44.5127 101.987 40.46 99.9365C36.4561 97.8857 33.4775 95.4443 31.5244 92.6123C29.6201 89.7803 28.668 86.4111 28.668 82.5049C28.668 76.0107 31.4023 70.5176 36.8711 66.0254C42.3887 61.5332 49.4199 59.2871 57.9648 59.2871C66.9492 59.2871 74.2246 61.6064 79.791 66.2451C85.4062 70.8838 88.2139 76.8164 88.2139 84.043H74.5908C74.5908 80.332 73.0039 77.1338 69.8301 74.4482C66.7051 71.7627 62.75 70.4199 57.9648 70.4199C53.0332 70.4199 49.1758 71.4941 46.3926 73.6426C43.6094 75.791 42.2178 78.5986 42.2178 82.0654C42.2178 85.3369 43.5117 87.8027 46.0996 89.4629C48.6875 91.123 53.3506 92.71 60.0889 94.2236C66.876 95.7373 72.3691 97.5439 76.5684 99.6436C80.7676 101.743 83.8682 104.282 85.8701 107.261C87.9209 110.19 88.9463 113.779 88.9463 118.027C88.9463 125.107 86.1143 130.796 80.4502 135.093C74.7861 139.341 67.4375 141.465 58.4043 141.465C52.0566 141.465 46.4414 140.342 41.5586 138.096C36.6758 135.85 32.8428 132.725 30.0596 128.721C27.3252 124.668 25.958 120.298 25.958 115.61H39.5078C39.752 120.151 41.5586 123.765 44.9277 126.45C48.3457 129.087 52.8379 130.405 58.4043 130.405C63.5312 130.405 67.6328 129.38 70.709 127.329C73.834 125.229 75.3965 122.446 75.3965 118.979Z" fill="white"/>
<mask id="mask0" mask-type="alpha" maskUnits="userSpaceOnUse" x="25" y="58" width="64" height="83">
<path d="M75.3965 117.979C75.3965 114.317 74.0049 111.485 71.2217 109.483C68.4873 107.433 63.6777 105.675 56.793 104.21C49.957 102.745 44.5127 100.987 40.46 98.9365C36.4561 96.8857 33.4775 94.4443 31.5244 91.6123C29.6201 88.7803 28.668 85.4111 28.668 81.5049C28.668 75.0107 31.4023 69.5176 36.8711 65.0254C42.3887 60.5332 49.4199 58.2871 57.9648 58.2871C66.9492 58.2871 74.2246 60.6064 79.791 65.2451C85.4062 69.8838 88.2139 75.8164 88.2139 83.043H74.5908C74.5908 79.332 73.0039 76.1338 69.8301 73.4482C66.7051 70.7627 62.75 69.4199 57.9648 69.4199C53.0332 69.4199 49.1758 70.4941 46.3926 72.6426C43.6094 74.791 42.2178 77.5986 42.2178 81.0654C42.2178 84.3369 43.5117 86.8027 46.0996 88.4629C48.6875 90.123 53.3506 91.71 60.0889 93.2236C66.876 94.7373 72.3691 96.5439 76.5684 98.6436C80.7676 100.743 83.8682 103.282 85.8701 106.261C87.9209 109.19 88.9463 112.779 88.9463 117.027C88.9463 124.107 86.1143 129.796 80.4502 134.093C74.7861 138.341 67.4375 140.465 58.4043 140.465C52.0566 140.465 46.4414 139.342 41.5586 137.096C36.6758 134.85 32.8428 131.725 30.0596 127.721C27.3252 123.668 25.958 119.298 25.958 114.61H39.5078C39.752 119.151 41.5586 122.765 44.9277 125.45C48.3457 128.087 52.8379 129.405 58.4043 129.405C63.5312 129.405 67.6328 128.38 70.709 126.329C73.834 124.229 75.3965 121.446 75.3965 117.979Z" fill="white"/>
</mask>
<g mask="url(#mask0)">
<path d="M48.0455 84.5366L36 62L38.4091 86.6829L39.6136 103.854L48.0455 118.878L39.6136 134.976L48.0455 144.634L54.0682 140.341V130.683L60.0909 118.878L63.7045 134.976H79.3636L89 150V134.976L75.75 116.732L70.9318 100.634L48.0455 84.5366Z" fill="#5E5E5E"/>
</g>
</svg>
